# xmcd
#
# Track frame offsets: 
#        150
#        21066
#        43973
#        65811
#        85215
#        104973
#        121096
#        137683
#        157829
#
# Disc length: 2340 seconds
#
# Revision: 1
# Processed by: cddbd v1.5.2PL0 Copyright (c) Steve Scherf et al.
# Submitted via: ExactAudioCopy v0.95b4
#
DISCID=7a092209
DTITLE=Beady Belle - Belvedere
DYEAR=2008
DGENRE=Jazz
TTITLE0=Apron strings
TTITLE1=A touch of paradise
TTITLE2=Tower of lament
TTITLE3=Self-fulfilling (feat India.Arie)
TTITLE4=Tranquil flight
TTITLE5=Intermission music (feat. Jamie Cullum)
TTITLE6=Viscous ocean
TTITLE7=Boiling milk
TTITLE8=Two-faced
EXTD=YEAR: 2008
EXTT0=
EXTT1=
EXTT2=
EXTT3=
EXTT4=
EXTT5=
EXTT6=
EXTT7=
EXTT8=
PLAYORDER=
